<svg width="18" height="20" viewBox="0 0 18 20" fill="none" xmlns="http://www.w3.org/2000/svg">
<path d="M17.1599 15.5863C16.8575 16.2851 16.4995 16.9283 16.0847 17.5196C15.5192 18.3257 15.0563 18.8838 14.6995 19.1936C14.1464 19.7022 13.5539 19.9627 12.9193 19.9775C12.4638 19.9775 11.9144 19.8479 11.2749 19.585C10.6333 19.3232 10.0437 19.1936 9.50462 19.1936C8.9392 19.1936 8.3328 19.3232 7.68418 19.585C7.03457 19.8479 6.51125 19.985 6.11114 19.9985C5.50264 20.0245 4.89612 19.7566 4.29071 19.1936C3.9043 18.8566 3.42098 18.2788 2.84199 17.4603C2.22077 16.5863 1.71005 15.5727 1.30994 14.4172C0.881434 13.1691 0.666626 11.9605 0.666626 10.7904C0.666626 9.45008 0.956246 8.29407 1.53635 7.32533C1.99226 6.54721 2.59879 5.9334 3.3579 5.4828C4.11701 5.03219 4.93723 4.80257 5.82054 4.78788C6.30385 4.78788 6.93766 4.93738 7.72529 5.2312C8.5107 5.52601 9.015 5.67551 9.2361 5.67551C9.40141 5.67551 9.96164 5.5007 10.9114 5.15219C11.8095 4.82899 12.5675 4.69517 13.1884 4.74788C14.8711 4.88368 16.1353 5.54699 16.976 6.74202C15.4711 7.65384 14.7267 8.93096 14.7415 10.5693C14.7551 11.8454 15.218 12.9074 16.1279 13.7506C16.5402 14.1419 17.0007 14.4444 17.513 14.6592C17.4019 14.9814 17.2846 15.29 17.1599 15.5863ZM13.3008 0.400358C13.3008 1.40059 12.9354 2.3345 12.207 3.19892C11.328 4.22654 10.2648 4.82035 9.11191 4.72665C9.09722 4.60665 9.0887 4.48036 9.0887 4.34765C9.0887 3.38743 9.50671 2.3598 10.249 1.51958C10.6196 1.09416 11.091 0.740434 11.6626 0.458257C12.2329 0.18029 12.7724 0.0265683 13.2798 0.000244141C13.2946 0.133959 13.3008 0.267682 13.3008 0.400345V0.400358Z" fill="white"/>
</svg>
