<svg height="512pt" viewBox="0 -13 512.00101 512" width="512pt" xmlns="http://www.w3.org/2000/svg"><path d="m452.609375 0h-82.835937c-4.199219 0-7.605469 3.40625-7.605469 7.605469s3.40625 7.601562 7.605469 7.601562h82.835937c24.363281 0 44.183594 19.824219 44.183594 44.183594v42.015625h-481.585938v-42.011719c0-24.363281 19.820313-44.183593 44.1875-44.183593h279.964844c4.199219 0 7.601563-3.40625 7.601563-7.605469s-3.402344-7.605469-7.601563-7.605469h-279.964844c-32.75 0-59.394531 26.644531-59.394531 59.394531v297c0 4.199219 3.40625 7.605469 7.605469 7.605469s7.601562-3.40625 7.601562-7.605469v-239.78125h481.585938v309.691407c0 24.363281-19.820313 44.183593-44.183594 44.183593h-393.214844c-24.363281 0-44.1875-19.820312-44.1875-44.183593v-39.492188c0-4.199219-3.402343-7.605469-7.601562-7.605469s-7.605469 3.40625-7.605469 7.605469v39.492188c0 32.75 26.644531 59.394531 59.394531 59.394531h393.214844c32.75 0 59.390625-26.644531 59.390625-59.394531v-366.910157c0-32.75-26.644531-59.394531-59.390625-59.394531zm0 0"/><path d="m36.394531 58.308594c0 14.257812 11.597657 25.855468 25.855469 25.855468s25.855469-11.597656 25.855469-25.855468c0-14.257813-11.597657-25.859375-25.855469-25.859375s-25.855469 11.601562-25.855469 25.859375zm36.503907 0c0 5.871094-4.777344 10.648437-10.648438 10.648437s-10.648438-4.777343-10.648438-10.648437 4.777344-10.648438 10.648438-10.648438 10.648438 4.773438 10.648438 10.648438zm0 0"/><path d="m105.878906 58.308594c0 14.257812 11.601563 25.855468 25.859375 25.855468 14.253907 0 25.855469-11.597656 25.855469-25.855468 0-14.257813-11.601562-25.859375-25.855469-25.859375-14.257812 0-25.859375 11.601562-25.859375 25.859375zm36.507813 0c0 5.871094-4.777344 10.648437-10.648438 10.648437-5.871093 0-10.648437-4.777343-10.648437-10.648437s4.777344-10.648438 10.648437-10.648438c5.871094 0 10.648438 4.773438 10.648438 10.648438zm0 0"/><path d="m175.367188 58.308594c0 14.257812 11.601562 25.855468 25.859374 25.855468 14.253907 0 25.855469-11.597656 25.855469-25.855468 0-14.257813-11.601562-25.859375-25.855469-25.859375-14.257812 0-25.859374 11.601562-25.859374 25.859375zm36.507812 0c0 5.871094-4.777344 10.648437-10.648438 10.648437-5.871093 0-10.648437-4.777343-10.648437-10.648437s4.777344-10.648438 10.648437-10.648438c5.871094 0 10.648438 4.773438 10.648438 10.648438zm0 0"/><path d="m256.007812 349.109375c32.257813 0 58.503907-26.253906 58.503907-58.523437 0-32.257813-26.246094-58.503907-58.503907-58.503907-32.269531 0-58.519531 26.246094-58.519531 58.503907 0 32.269531 26.25 58.523437 58.519531 58.523437zm0-101.820313c23.875 0 43.296876 19.425782 43.296876 43.296876 0 23.882812-19.421876 43.316406-43.296876 43.316406-23.882812 0-43.3125-19.433594-43.3125-43.316406 0-23.871094 19.429688-43.296876 43.3125-43.296876zm0 0"/><path d="m109.417969 344.597656 26.53125 45.949219c1.886719 3.265625 5.882812 4.65625 9.390625 3.261719l39.410156-15.648438c9.359375 7.636719 19.769531 13.652344 31.050781 17.945313l6.152344 41.929687c.546875 3.734375 3.75 6.503906 7.523437 6.503906h53.046876c3.769531 0 6.972656-2.769531 7.519531-6.5l6.167969-41.9375c11.273437-4.292968 21.683593-10.308593 31.035156-17.941406l39.429687 15.648438c3.507813 1.390625 7.507813.003906 9.390625-3.265625l26.515625-45.949219c1.886719-3.269531 1.089844-7.421875-1.867187-9.761719l-33.226563-26.292969c.949219-5.957031 1.425781-11.976562 1.425781-17.953124 0-5.96875-.480468-11.980469-1.425781-17.9375l33.226563-26.289063c2.957031-2.34375 3.753906-6.496094 1.867187-9.765625l-26.515625-45.949219c-1.882812-3.265625-5.882812-4.65625-9.390625-3.265625l-39.429687 15.648438c-9.351563-7.632813-19.757813-13.648438-31.035156-17.941406l-6.167969-41.953126c-.546875-3.734374-3.75-6.5-7.519531-6.5h-53.046876c-3.773437 0-6.976562 2.769532-7.523437 6.503907l-6.148437 41.945312c-11.285157 4.292969-21.695313 10.308594-31.054688 17.945313l-39.410156-15.648438c-3.507813-1.394531-7.503906-.003906-9.390625 3.265625l-26.53125 45.945313c-1.886719 3.269531-1.09375 7.425781 1.867187 9.769531l33.238282 26.285156c-.945313 5.90625-1.421876 11.921875-1.421876 17.941407 0 6.027343.476563 12.046874 1.421876 17.953124l-33.238282 26.289063c-2.960937 2.34375-3.753906 6.5-1.867187 9.769531zm48.117187-26.957031c2.25-1.777344 3.304688-4.671875 2.734375-7.480469-1.300781-6.386718-1.960937-12.96875-1.960937-19.574218 0-6.589844.65625-13.167969 1.960937-19.554688.570313-2.808594-.484375-5.703125-2.734375-7.480469l-31.664062-25.042969 19.960937-34.566406 37.554688 14.910156c2.667969 1.058594 5.707031.523438 7.855469-1.378906 9.898437-8.785156 21.28125-15.363281 33.828124-19.550781 2.722657-.90625 4.699219-3.269531 5.117188-6.109375l5.859375-39.96875h39.90625l5.878906 39.972656c.414063 2.835938 2.390625 5.195313 5.109375 6.105469 12.542969 4.191406 23.917969 10.765625 33.816406 19.550781 2.148438 1.902344 5.183594 2.433594 7.851563 1.378906l37.570313-14.910156 19.949218 34.566406-31.648437 25.042969c-2.242188 1.773438-3.300781 4.660157-2.734375 7.464844 1.304687 6.46875 1.964844 13.054687 1.964844 19.570313 0 6.527343-.660157 13.117187-1.964844 19.589843-.566406 2.804688.492187 5.6875 2.734375 7.464844l31.648437 25.042969-19.949218 34.566406-37.570313-14.910156c-2.667969-1.058594-5.703125-.527344-7.851563 1.378906-9.898437 8.785156-21.273437 15.359375-33.816406 19.550781-2.71875.90625-4.695312 3.269531-5.109375 6.105469l-5.875 39.953125h-39.910156l-5.859375-39.949219c-.417969-2.839844-2.394531-5.203125-5.117188-6.113281-12.546874-4.183594-23.925781-10.761719-33.828124-19.546875-2.148438-1.902344-5.183594-2.4375-7.851563-1.378906l-37.558594 14.910156-19.960937-34.566406zm0 0"/></svg>