<?xml version="1.0" encoding="iso-8859-1"?>
<!-- Generator: Adobe Illustrator 19.0.0, SVG Export Plug-In . SVG Version: 6.00 Build 0)  -->
<svg version="1.1" id="Capa_1" xmlns="http://www.w3.org/2000/svg" xmlns:xlink="http://www.w3.org/1999/xlink" x="0px" y="0px"
	 viewBox="0 0 512 512" style="enable-background:new 0 0 512 512;" xml:space="preserve">
<g>
	<g>
		<path d="M457.081,362.584c-14.003-7.049-47.42-28.262-55.26-72.862c-0.717-4.079-4.601-6.802-8.687-6.088
			c-4.079,0.717-6.805,4.605-6.088,8.686c8.997,51.185,47.102,75.493,63.188,83.613c-4.334,12.556-14.158,37.284-31.447,62.524
			c-18.375,26.867-39.2,57.318-70.12,57.904c-31.048,0.514-42.266-19.777-82.011-19.777c-39.752,0-52.398,19.222-81.827,20.388
			c-27.702,1.06-49.923-27.66-72.124-59.749c-41.025-59.34-73.555-169.266-31.209-242.766
			c17.707-30.733,47.025-51.569,80.435-57.165c4.085-0.684,6.842-4.551,6.158-8.637s-4.548-6.845-8.637-6.158
			c-37.849,6.34-71.001,29.839-90.956,64.472c-45.263,78.562-12.643,194.408,31.87,258.788
			c18.316,26.475,45.829,66.248,83.046,66.244c33.553,0,46.154-20.414,83.243-20.416c36.163,0,46.793,20.438,82.29,19.774
			c38.656-0.733,62.814-36.053,82.22-64.43c18.326-26.754,28.72-52.962,33.283-66.204
			C466.864,373.714,463.697,365.915,457.081,362.584z"/>
	</g>
</g>
<g>
	<g>
		<path d="M363.875,14.506c-0.188-8.95-8.289-15.691-17.175-14.331c-58.293,8.905-100.445,65.247-98.593,114.719
			c0.299,7.943,6.883,14.251,14.771,14.251c0.14,0,0.28-0.002,0.42-0.006C317.845,127.596,365.066,70.92,363.875,14.506z
			 M263.091,114.138c-0.874-25.268,12.409-49.994,25.186-64.767c14.729-17.245,39.083-31.046,60.605-34.365
			C349.781,62.719,309.703,112.647,263.091,114.138z"/>
	</g>
</g>
<g>
	<g>
		<path d="M447.658,165.468c-22.62-28.835-54.825-43.14-91.835-45.9c-42.603-3.154-78.92,22.862-95.694,22.862
			c-13.729,0-37.375-14.517-62.942-19.715c-4.062-0.828-8.019,1.796-8.845,5.855c-0.825,4.059,1.796,8.019,5.855,8.845
			c25.02,5.088,47.74,20.016,65.932,20.016c21.872,0,55.367-25.811,94.582-22.904c32.643,2.436,61.016,14.63,81.035,40.061
			c-13.025,9.383-43.764,35.909-49.606,80.457c-0.538,4.107,2.355,7.873,6.461,8.412c0.331,0.043,0.66,0.064,0.985,0.064
			c3.708,0,6.931-2.75,7.428-6.525c5.09-38.814,32.158-62.078,43.558-70.277C451.318,181.869,452.966,172.233,447.658,165.468z"/>
	</g>
</g>
<g>
</g>
<g>
</g>
<g>
</g>
<g>
</g>
<g>
</g>
<g>
</g>
<g>
</g>
<g>
</g>
<g>
</g>
<g>
</g>
<g>
</g>
<g>
</g>
<g>
</g>
<g>
</g>
<g>
</g>
</svg>
