<svg width="192" height="192" viewBox="0 0 192 192" fill="none" xmlns="http://www.w3.org/2000/svg">
<g clip-path="url(#clip0)">
<path d="M96 192C149.019 192 192 149.019 192 96C192 42.9807 149.019 0 96 0C42.9807 0 0 42.9807 0 96C0 149.019 42.9807 192 96 192Z" fill="#828282"/>
<path d="M155.931 55.2998H35.8349L79.342 100.602L91.897 113.315C85.066 111.753 84.6434 110.78 81.6164 108.309C80.0286 107.012 76.9612 103.489 72.3022 98.7312C57.7593 83.8808 33.082 58.6816 33.082 58.6816V133.24L36.1814 136.339L35.8345 136.7L91.0056 191.871C92.6601 191.956 94.3251 192 96.0006 192C149.02 192 192.001 149.019 192.001 96.0001C192.001 94.4078 191.959 92.8253 191.883 91.2522L155.931 55.2998Z" fill="#606060"/>
<path d="M33.0803 58.6816V133.24L69.4395 95.81L33.0803 58.6816Z" fill="white"/>
<path d="M158.918 58.6816V133.24L122.739 95.9608L158.918 58.6816Z" fill="white"/>
<path d="M35.8328 55.2998H155.928L108.729 104.447C105.37 107.944 100.73 109.921 95.8808 109.921C91.0317 109.921 86.3918 107.944 83.0326 104.447L35.8328 55.2998Z" fill="white"/>
<path d="M111.452 107.061C107.402 111.278 101.727 113.697 95.8808 113.697C90.035 113.697 84.3593 111.279 80.3101 107.062L72.3042 98.7256L35.8328 136.701H155.928L119.457 98.7256L111.452 107.061Z" fill="white"/>
</g>
<defs>
<clipPath id="clip0">
<rect width="192" height="192" fill="white"/>
</clipPath>
</defs>
</svg>
