<svg width="20" height="20" viewBox="0 0 20 20" fill="none" xmlns="http://www.w3.org/2000/svg">
<path fill-rule="evenodd" clip-rule="evenodd" d="M14.0363 5.45661C13.0038 4.47186 11.6259 3.93539 10.2002 3.95744C7.59134 3.95744 5.37566 5.71748 4.58564 8.08748V8.08754C4.16676 9.3295 4.16676 10.6743 4.58564 11.9163H4.58931C5.38299 14.2826 7.59501 16.0427 10.2039 16.0427C11.5505 16.0427 12.7067 15.6982 13.6027 15.0898V15.0874C14.6573 14.3892 15.3775 13.2906 15.6016 12.0486H10.2002V8.19778H19.6325C19.7501 8.86653 19.8052 9.54998 19.8052 10.2298C19.8052 13.2713 18.7182 15.8428 16.8269 17.5844L16.8289 17.586C15.1717 19.1145 12.8972 20.0001 10.2002 20.0001C6.41918 20.0001 2.96153 17.8689 1.26394 14.4921V14.4921C-0.154389 11.6664 -0.154385 8.33739 1.26395 5.51175H1.26397L1.26394 5.51173C2.96153 2.13124 6.41918 6.35367e-05 10.2002 6.35367e-05C12.6841 -0.029332 15.0835 0.903977 16.8913 2.60157L14.0363 5.45661Z" fill="white"/>
</svg>
