<?xml version="1.0" encoding="iso-8859-1"?>
<!-- Generator: Adobe Illustrator 19.0.0, SVG Export Plug-In . SVG Version: 6.00 Build 0)  -->
<svg version="1.1" id="Capa_1" xmlns="http://www.w3.org/2000/svg" xmlns:xlink="http://www.w3.org/1999/xlink" x="0px" y="0px"
	 viewBox="0 0 472 472" style="enable-background:new 0 0 472 472;" xml:space="preserve">
<rect x="132" y="40" style="fill:#9c9da5;" width="208" height="352"/>
<path style="fill:#ddd;" d="M116,168H20c-8.837,0-16-7.163-16-16V56c0-8.837,7.163-16,16-16h96c8.837,0,16,7.163,16,16v96
	C132,160.837,124.837,168,116,168z"/>
<path style="fill:#468cbe;" d="M284,216h-96c-8.837,0-16-7.163-16-16v-96c0-8.837,7.163-16,16-16h96c8.837,0,16,7.163,16,16v96
	C300,208.837,292.837,216,284,216z"/>
<path style="fill:#468cbe;" d="M36,83.2l2.791,1.881c9.014,6.076,19.606,9.319,30.44,9.319h0V86c0-7.732,6.199-14,13.846-14h0
	c7.647,0,13.846,6.268,13.846,14L108,94.4l-11.077,11.2v0c0,12.371-9.919,22.4-22.154,22.4H36l11.077-11.2l0,0
	C39.984,109.629,36,99.902,36,89.761V83.2z"/>
<g>
	<path style="fill:#ddd;" d="M260,128v-16h-24c-4.422,0-8,3.582-8,8v24h-16v16h16v32h16v-32h16v-16h-16v-16H260z"/>
	<path style="fill:#ddd;" d="M404,96c-17.673,0-32-14.327-32-32h-32v48c0,8.836,7.164,16,16,16h96c8.836,0,16-7.164,16-16V64h-32
		C436,81.673,421.673,96,404,96z"/>
</g>
<path style="fill:#ff6469;" d="M452,0h-96c-8.836,0-16,7.163-16,16v48h32c0-17.673,14.327-32,32-32s32,14.327,32,32h32V16
	C468,7.163,460.836,0,452,0z"/>
<g>
	<circle style="fill:#E7F6FE;" cx="404" cy="64" r="32"/>
	<rect x="228" y="320" style="fill:#E7F6FE;" width="16" height="16"/>
</g>
<path style="fill:#FFB398;" d="M164,432c22.091,0,40-17.909,40-40v-8c0-35.346-28.654-64-64-64h24c22.091,0,40-17.909,40-40h-80
	c-8.836,0-16,7.163-16,16v176h128v-40H164z"/>
<path style="fill:#FE946F;" d="M204,392c0,22.091-17.909,40-40,40h72v40h48v-40h16v-40H204z"/>
<g>
	<path style="fill:#FFB398;" d="M364,312h-52c-11.046,0-20-8.954-20-20v0c0-11.046,8.954-20,20-20h52c11.046,0,20,8.954,20,20v0
		C384,303.046,375.046,312,364,312z"/>
	<path style="fill:#FFB398;" d="M364,352h-52c-11.046,0-20-8.954-20-20v0c0-11.046,8.954-20,20-20h52c11.046,0,20,8.954,20,20v0
		C384,343.046,375.046,352,364,352z"/>
	<path style="fill:#FFB398;" d="M352,392h-52c-11.046,0-20-8.954-20-20v0c0-11.046,8.954-20,20-20h52c11.046,0,20,8.954,20,20v0
		C372,383.046,363.046,392,352,392z"/>
	<path style="fill:#FFB398;" d="M328,432h-52c-11.046,0-20-8.954-20-20v0c0-11.046,8.954-20,20-20h52c11.046,0,20,8.954,20,20v0
		C348,423.046,339.046,432,328,432z"/>
</g>
<g>
</g>
<g>
</g>
<g>
</g>
<g>
</g>
<g>
</g>
<g>
</g>
<g>
</g>
<g>
</g>
<g>
</g>
<g>
</g>
<g>
</g>
<g>
</g>
<g>
</g>
<g>
</g>
<g>
</g>
</svg>
