<?xml version="1.0" encoding="iso-8859-1"?>
<!-- Generator: Adobe Illustrator 19.0.0, SVG Export Plug-In . SVG Version: 6.00 Build 0)  -->
<svg version="1.1" id="Layer_1" xmlns="http://www.w3.org/2000/svg" xmlns:xlink="http://www.w3.org/1999/xlink" x="0px" y="0px"
	 viewBox="0 0 480 480" style="enable-background:new 0 0 480 480;" xml:space="preserve">
<g>
	<g>
		<path d="M456,232V56c0-22.056-17.944-40-40-40H64c-22.056,0-40,17.944-40,40v120c-13.232,0-24,10.768-24,24v240
			c0,13.232,10.768,24,24,24h176c13.232,0,24-10.768,24-24h67.048c7.544,0,14.496-3.44,19.072-9.432s6.064-13.608,4.08-20.88
			L298.472,352H344v88c0,13.232,10.768,24,24,24h88c13.232,0,24-10.768,24-24V256C480,242.768,469.232,232,456,232z M208,440
			c0,4.408-3.592,8-8,8H24c-4.408,0-8-3.592-8-8v-16h192V440z M208,408H16V232h192V408z M208,216H16v-16c0-4.408,3.592-8,8-8h176
			c4.408,0,8,3.592,8,8V216z M298.768,413.896c0.664,2.424,0.168,4.96-1.36,6.96s-3.84,3.144-6.36,3.144H224v-16h73.16
			L298.768,413.896z M224,392v-40h57.888l10.912,40H224z M344,336H224v-48h120V336z M344,256v16H224v-72c0-13.232-10.768-24-24-24
			H40V56c0-13.232,10.768-24,24-24h352c13.232,0,24,10.768,24,24v176h-72C354.768,232,344,242.768,344,256z M464,440
			c0,4.408-3.592,8-8,8h-88c-4.408,0-8-3.592-8-8v-16h104V440z M464,408H360V288h104V408z M464,272H360v-16c0-4.408,3.592-8,8-8h88
			c4.408,0,8,3.592,8,8V272z"/>
	</g>
</g>
<g>
	<g>
		<rect x="41.372" y="327.994" transform="matrix(0.7071 -0.7071 0.7071 0.7071 -218.8385 143.6649)" width="45.256" height="16"/>
	</g>
</g>
<g>
	<g>
		<rect x="60.114" y="319.995" transform="matrix(0.7071 -0.7071 0.7071 0.7071 -194.4378 186.5751)" width="135.767" height="16"/>
	</g>
</g>
<g>
	<g>
		<rect x="86.054" y="272.005" transform="matrix(0.7071 -0.7071 0.7071 0.7071 -162.8477 166.8601)" width="67.879" height="16"/>
	</g>
</g>
<g>
	<g>
		<rect x="375.705" y="324.008" transform="matrix(0.7071 -0.7071 0.7071 0.7071 -116.4408 382.9028)" width="56.559" height="16"/>
	</g>
</g>
<g>
	<g>
		<rect x="391.702" y="356.042" transform="matrix(0.7071 -0.7071 0.7071 0.7071 -134.4066 403.5971)" width="56.559" height="16"/>
	</g>
</g>
<g>
	<g>
		<rect x="206.052" y="128.002" transform="matrix(0.7071 -0.7071 0.7071 0.7071 -25.876 209.5337)" width="67.879" height="16"/>
	</g>
</g>
<g>
	<g>
		<rect x="278.057" y="112.001" transform="matrix(0.7071 -0.7071 0.7071 0.7071 6.5281 255.7627)" width="67.879" height="16"/>
	</g>
</g>
<g>
	<g>
		<rect x="233.364" y="168.01" transform="matrix(0.7071 -0.7071 0.7071 0.7071 -49.4797 232.5655)" width="45.256" height="16"/>
	</g>
</g>
<g>
	<g>
		<rect x="273.302" y="72.062" transform="matrix(0.7071 -0.7071 0.7071 0.7071 30.0796 232.7427)" width="45.368" height="16"/>
	</g>
</g>
<g>
	<g>
		<rect x="56" y="48" width="16" height="16"/>
	</g>
</g>
<g>
	<g>
		<rect x="88" y="48" width="16" height="16"/>
	</g>
</g>
<g>
	<g>
		<rect x="120" y="48" width="16" height="16"/>
	</g>
</g>
<g>
</g>
<g>
</g>
<g>
</g>
<g>
</g>
<g>
</g>
<g>
</g>
<g>
</g>
<g>
</g>
<g>
</g>
<g>
</g>
<g>
</g>
<g>
</g>
<g>
</g>
<g>
</g>
<g>
</g>
</svg>
