<?xml version="1.0" encoding="iso-8859-1"?>
<!-- Generator: Adobe Illustrator 19.0.0, SVG Export Plug-In . SVG Version: 6.00 Build 0)  -->
<svg version="1.1" id="Capa_1" xmlns="http://www.w3.org/2000/svg" xmlns:xlink="http://www.w3.org/1999/xlink" x="0px" y="0px"
	 viewBox="0 0 512 512" style="enable-background:new 0 0 512 512;" xml:space="preserve">
<path style="fill:#468cbe;" d="M511.999,255.999c0,17.606-1.776,34.805-5.172,51.419c-2.853,14.033-6.865,27.648-11.922,40.751v0.01
	c-10.574,27.418-25.757,52.537-44.565,74.459c-6.154,7.168-12.695,13.981-19.592,20.428c-4.869,4.556-9.916,8.913-15.13,13.082
	c-43.771,34.952-99.255,55.85-159.618,55.85s-115.848-20.898-159.618-55.85c-5.214-4.169-10.261-8.526-15.13-13.082
	c-6.896-6.447-13.437-13.26-19.592-20.428C23.217,377.866,0.001,319.634,0.001,255.999c0-7.92,0.355-15.757,1.066-23.5
	c2.57-28.212,9.707-55.108,20.689-79.935c10.198-23.061,23.698-44.324,39.905-63.206C108.606,34.659,178.259,0,256,0
	s147.393,34.659,194.34,89.359c11.797,13.74,22.162,28.756,30.856,44.795c4.671,8.6,8.85,17.492,12.518,26.645
	C505.511,190.234,511.999,222.364,511.999,255.999z"/>
<path style="fill:#5C5E70;" d="M450.336,24.87V422.64c-46.947,54.7-116.6,89.359-194.34,89.359s-147.393-34.659-194.34-89.359V24.87
	c0-13.73,11.128-24.869,24.869-24.869h338.943C439.198,0.001,450.336,11.14,450.336,24.87z"/>
<path style="fill:#ddd;" d="M430.748,85.462v357.605c-6.416,5.987-13.134,11.661-20.135,16.98
	c-42.956,32.601-96.527,51.952-154.613,51.952s-111.658-19.351-154.613-51.952c-7.001-5.319-13.719-10.992-20.135-16.98V85.462
	c0-8.192,6.635-14.827,14.827-14.827h319.843c0.899,0,1.776,0.084,2.623,0.24C425.481,72.108,430.748,78.169,430.748,85.462z"/>
<path style="fill:#494B5B;" d="M321.821,45.555h-131.65c-6.059,0-10.97-4.912-10.97-10.97l0,0c0-6.059,4.912-10.97,10.97-10.97
	h131.651c6.059,0,10.97,4.912,10.97,10.97l0,0C332.792,40.643,327.88,45.555,321.821,45.555z"/>
<circle style="fill:#ffb398;" cx="255.999" cy="288.329" r="114.207"/>
<path style="fill:#ff6469;" d="M341.897,363.541c-20.919,23.889-51.648,38.967-85.898,38.967s-64.979-15.078-85.898-38.967
	c21.194-22.991,51.549-37.445,85.274-37.619c0.225,0.025,0.424,0.025,0.649,0.025c0.2,0,0.424,0,0.624-0.025
	C290.374,326.097,320.703,340.55,341.897,363.541z"/>
<path style="fill:#F2F2F2;" d="M256.024,228.896c30.938,0,56.017,25.079,56.017,56.017c0,30.667-24.635,55.54-55.165,55.982
	c-0.306,0-0.579,0-0.886,0c-0.273,0-0.579,0-0.852,0c-30.53-0.443-55.131-25.351-55.131-55.982
	C200.007,253.974,225.086,228.896,256.024,228.896z"/>
<g>
</g>
<g>
</g>
<g>
</g>
<g>
</g>
<g>
</g>
<g>
</g>
<g>
</g>
<g>
</g>
<g>
</g>
<g>
</g>
<g>
</g>
<g>
</g>
<g>
</g>
<g>
</g>
<g>
</g>
</svg>
